<svg width="29" height="29" viewBox="0 0 29 29" fill="none" xmlns="http://www.w3.org/2000/svg">
<g clip-path="url(#clip0_417_1412)">
<path d="M14.8154 15.8403C14.7642 15.8293 14.7118 15.8273 14.66 15.835C14.1409 15.7746 13.7494 15.3354 13.7485 14.8131C13.7485 14.5627 13.5455 14.3597 13.2952 14.3597C13.0448 14.3597 12.8418 14.5627 12.8418 14.8131C12.8432 15.6854 13.4266 16.4495 14.2678 16.6803V17.1336C14.2678 17.384 14.4707 17.587 14.7211 17.587C14.9714 17.587 15.1744 17.384 15.1744 17.1336V16.7078C16.1452 16.5046 16.805 15.6004 16.703 14.6138C16.6007 13.6273 15.7696 12.8776 14.7777 12.8774C14.2093 12.8774 13.7485 12.4165 13.7485 11.8481C13.7485 11.2797 14.2093 10.8189 14.7777 10.8189C15.3461 10.8189 15.807 11.2797 15.807 11.8481C15.807 12.0985 16.01 12.3014 16.2603 12.3014C16.5106 12.3014 16.7136 12.0985 16.7136 11.8481C16.7123 10.9322 16.0706 10.1422 15.1744 9.95319V9.5406C15.1744 9.29025 14.9714 9.08728 14.7211 9.08728C14.4707 9.08728 14.2678 9.29025 14.2678 9.5406V9.98085C13.3323 10.2363 12.7303 11.1445 12.8591 12.1056C12.9879 13.0666 13.808 13.784 14.7777 13.7838C15.3386 13.7838 15.7961 14.2329 15.8063 14.7936C15.8167 15.3542 15.3758 15.82 14.8154 15.8403Z" fill="white"/>
<path d="M8.2041 13.3654C8.2041 16.9959 11.1471 19.9389 14.7776 19.9389C18.4081 19.9389 21.3512 16.9959 21.3512 13.3654C21.3512 9.73488 18.4081 6.79187 14.7776 6.79187C11.1489 6.79585 8.20831 9.73666 8.2041 13.3654ZM14.7776 7.6985C17.9075 7.6985 20.4445 10.2356 20.4445 13.3654C20.4445 16.4952 17.9075 19.0323 14.7776 19.0323C11.6478 19.0323 9.11073 16.4952 9.11073 13.3654C9.11428 10.2371 11.6493 7.70204 14.7776 7.6985Z" fill="white"/>
<path d="M23.5858 21.0565L20.0348 22.7343C19.5445 21.8224 18.604 21.242 17.569 21.2128L14.2909 21.1227C13.7718 21.1079 13.2625 20.9764 12.801 20.738L12.4674 20.5651C10.7595 19.6749 8.7238 19.6771 7.01767 20.5709L7.03847 19.8152C7.04533 19.5649 6.84811 19.3563 6.59777 19.3495L3.00312 19.2505C2.75277 19.2437 2.54449 19.4409 2.53763 19.6912L2.32049 27.5796C2.31362 27.8299 2.51084 28.0384 2.76119 28.0453L6.35584 28.1442H6.36824C6.61393 28.1442 6.81491 27.9488 6.82155 27.7033L6.83196 27.3259L7.76581 26.8259C8.13236 26.6287 8.56089 26.5817 8.9613 26.6951L14.5379 28.2602C14.5476 28.2631 14.5574 28.2653 14.5673 28.2675C14.9704 28.3518 15.3812 28.3941 15.7929 28.3939C16.665 28.3943 17.5269 28.2064 18.3196 27.8425C18.3391 27.8337 18.3579 27.8233 18.3758 27.8115L26.4613 22.5816C26.6628 22.4512 26.7278 22.1867 26.6099 21.9777C26.0096 20.9126 24.6782 20.5069 23.5858 21.0565ZM3.23929 27.1515L3.43142 20.1693L6.11967 20.2433L5.92754 27.2256L3.23929 27.1515ZM17.9112 27.0328C16.9264 27.4773 15.8266 27.5999 14.7681 27.3837L9.20655 25.8225C8.58059 25.6457 7.91057 25.7189 7.33795 26.0268L6.86073 26.2825L6.98845 21.6402C8.50068 20.6344 10.4401 20.531 12.0506 21.3701L12.3842 21.543C12.9672 21.844 13.6102 22.0101 14.2661 22.0291L17.5444 22.1192C18.4652 22.1457 19.2472 22.8014 19.4341 23.7036L14.5509 23.5688C14.3006 23.5619 14.0923 23.7594 14.0852 24.0095C14.0784 24.2598 14.2758 24.4683 14.5259 24.4752L19.9148 24.6235H19.9274C20.1729 24.6233 20.3737 24.4278 20.3803 24.1826C20.3858 23.9856 20.3712 23.7884 20.3365 23.5945L23.9787 21.8735C23.9823 21.8719 23.9858 21.8702 23.9894 21.8684C24.506 21.607 25.1306 21.6944 25.5556 22.0878L17.9112 27.0328Z" fill="white"/>
<path d="M15.2318 5.51739V1.21088C15.2318 0.960542 15.0289 0.757568 14.7785 0.757568C14.5282 0.757568 14.3252 0.960542 14.3252 1.21088V5.51739C14.3252 5.76773 14.5282 5.9707 14.7785 5.9707C15.0289 5.9707 15.2318 5.76773 15.2318 5.51739Z" fill="white"/>
<path d="M18.6312 5.51741V3.47749C18.6312 3.22714 18.4283 3.02417 18.1779 3.02417C17.9276 3.02417 17.7246 3.22714 17.7246 3.47749V5.51741C17.7246 5.76775 17.9276 5.97072 18.1779 5.97072C18.4283 5.97072 18.6312 5.76775 18.6312 5.51741Z" fill="white"/>
<path d="M11.8314 5.51741V3.47749C11.8314 3.22714 11.6285 3.02417 11.3781 3.02417C11.1278 3.02417 10.9248 3.22714 10.9248 3.47749V5.51741C10.9248 5.76775 11.1278 5.97072 11.3781 5.97072C11.6285 5.97072 11.8314 5.76775 11.8314 5.51741Z" fill="white"/>
</g>
<defs>
<clipPath id="clip0_417_1412">
<rect width="27.6364" height="27.6364" fill="white" transform="translate(0.636719 0.757568)"/>
</clipPath>
</defs>
</svg>
