<svg width="28" height="27" viewBox="0 0 28 27" fill="none" xmlns="http://www.w3.org/2000/svg">
<path d="M5.79684 4.21892C6.09882 4.21892 6.3437 3.98278 6.3437 3.69158V2.63692H7.43743C7.73941 2.63692 7.9843 2.40078 7.9843 2.10958C7.9843 1.81839 7.73941 1.58225 7.43743 1.58225H6.3437V0.527579C6.3437 0.236384 6.09882 0.000244141 5.79684 0.000244141C5.49486 0.000244141 5.24997 0.236384 5.24997 0.527579V1.58225H4.15624C3.85426 1.58225 3.60938 1.81839 3.60938 2.10958C3.60938 2.40078 3.85426 2.63692 4.15624 2.63692H5.24997V3.69158C5.24997 3.98278 5.49486 4.21892 5.79684 4.21892Z" fill="#F8CF03"/>
<path d="M25.8125 13.711C26.1144 13.711 26.3593 13.4748 26.3593 13.1837V12.129H27.4531C27.755 12.129 27.9999 11.8928 27.9999 11.6016C27.9999 11.3105 27.755 11.0743 27.4531 11.0743H26.3593V10.0196C26.3593 9.72845 26.1144 9.49231 25.8125 9.49231C25.5105 9.49231 25.2656 9.72845 25.2656 10.0196V11.0743H24.1719C23.8699 11.0743 23.625 11.3105 23.625 11.6016C23.625 11.8928 23.8699 12.129 24.1719 12.129H25.2656V13.1837C25.2656 13.4748 25.5105 13.711 25.8125 13.711Z" fill="#F8CF03"/>
<path d="M8.53125 6.85559C8.53125 10.6357 11.7204 13.7109 15.6405 13.7109C19.5606 13.7109 22.7497 10.6357 22.7497 6.85559C22.7497 3.0755 19.5606 0.000244141 15.6405 0.000244141C11.7204 0.000244141 8.53125 3.0755 8.53125 6.85559ZM9.62498 6.85559C9.62498 3.83486 12.032 1.34648 15.0936 1.07912V3.23101C14.1512 3.46578 13.453 4.29254 13.453 5.27359C13.453 6.43668 14.4343 7.38293 15.6405 7.38293C16.2436 7.38293 16.7342 7.85605 16.7342 8.43759C16.7342 9.01914 16.2436 9.49226 15.6405 9.49226C15.0374 9.49226 14.5468 9.01914 14.5468 8.43759C14.5468 8.1464 14.3019 7.91026 13.9999 7.91026C13.6979 7.91026 13.453 8.1464 13.453 8.43759C13.453 9.41865 14.1512 10.2454 15.0936 10.4802V12.6321C12.032 12.3647 9.62498 9.87632 9.62498 6.85559ZM21.656 6.85559C21.656 9.87632 19.249 12.3647 16.1874 12.6321V10.4802C17.1298 10.2454 17.828 9.41865 17.828 8.43759C17.828 7.27451 16.8467 6.32826 15.6405 6.32826C15.0374 6.32826 14.5468 5.85513 14.5468 5.27359C14.5468 4.69204 15.0374 4.21892 15.6405 4.21892C16.2436 4.21892 16.7342 4.69204 16.7342 5.27359C16.7342 5.56478 16.9791 5.80092 17.2811 5.80092C17.5831 5.80092 17.828 5.56478 17.828 5.27359C17.828 4.29254 17.1298 3.46578 16.1874 3.23101V1.07912C19.249 1.34642 21.656 3.83486 21.656 6.85559Z" fill="#F8CF03"/>
<path d="M10.9375 26.2615C11.2395 26.2615 11.4844 26.0254 11.4844 25.7341C11.4844 25.4429 11.2395 25.2068 10.9375 25.2068C10.6355 25.2068 10.3906 25.4429 10.3906 25.7341C10.3906 26.0254 10.6355 26.2615 10.9375 26.2615Z" fill="#F8CF03"/>
<path d="M24.4462 17.462C24.4325 17.4724 24.6763 17.2779 19.7716 21.199H19.5022C19.689 20.8885 19.7965 20.5284 19.7965 20.1443C19.7965 18.9813 18.8152 18.035 17.6091 18.035H12.2617C11.7871 17.5879 10.4182 16.453 8.74985 16.453C7.50748 16.453 6.4319 17.0822 5.7673 17.5881C5.40172 16.9143 4.6699 16.4531 3.82806 16.4531H0.546865C0.244886 16.4531 0 16.6892 0 16.9804V26.4724C0 26.7636 0.244886 26.9997 0.546865 26.9997H5.46865C5.77063 26.9997 6.01552 26.7636 6.01552 26.4724V25.5094L8.4197 25.8826C8.71829 25.9288 8.99856 25.7334 9.04658 25.4458C9.09459 25.1583 8.89176 24.8877 8.59361 24.8414L6.01552 24.4412V18.778C6.39554 18.4243 7.50102 17.5077 8.74985 17.5077C10.2893 17.5077 11.6112 18.9008 11.6236 18.9141C11.7274 19.0258 11.8755 19.0897 12.031 19.0897H17.6091C18.2121 19.0897 18.7028 19.5628 18.7028 20.1443C18.7028 20.7259 18.2121 21.199 17.6091 21.199H12.8513C12.5494 21.199 12.3045 21.4352 12.3045 21.7263C12.3045 22.0175 12.5494 22.2537 12.8513 22.2537H19.9688C20.0963 22.2537 20.2197 22.2108 20.3179 22.1323L25.1276 18.2869C25.5993 17.9328 26.2669 18.0018 26.6503 18.4455C27.0427 18.8991 26.9768 19.5767 26.4967 19.9508C26.4967 19.9508 20.5281 24.4507 20.524 24.454C19.3229 25.4155 17.8018 25.945 16.2408 25.945C15.409 25.945 14.9859 25.817 13.4532 25.5957C13.1544 25.549 12.8743 25.7449 12.8263 26.0325C12.7783 26.32 12.9811 26.5906 13.2793 26.6369C14.783 26.8523 15.2886 26.9996 16.2408 26.9996C18.0536 26.9996 19.8204 26.3855 21.2162 25.2705C21.2162 25.2705 27.1775 20.7761 27.1794 20.7747C28.1368 20.0326 28.2773 18.6801 27.4904 17.7701C26.7239 16.8833 25.3867 16.7478 24.4462 17.462ZM4.92179 25.9451H1.09373V17.5077H3.82806C4.43114 17.5077 4.92179 17.9808 4.92179 18.5624V25.9451Z" fill="#F8CF03"/>
</svg>
