<svg width="29" height="29" viewBox="0 0 29 29" fill="none" xmlns="http://www.w3.org/2000/svg">
<g clip-path="url(#clip0_417_1432)">
<path d="M6.18297 24.0758H22.9699C24.7557 24.0758 26.2085 22.6229 26.2085 20.8371V3.9962C26.2085 2.21042 24.7557 0.757568 22.9699 0.757568H6.18297C4.39719 0.757568 2.94434 2.21042 2.94434 3.9962V25.1553C2.94434 26.9411 4.39719 28.3939 6.18297 28.3939H21.8904H22.9699C24.7557 28.3939 26.2085 26.9411 26.2085 25.1553V25.1526C25.3058 25.8318 24.1841 26.2348 22.9699 26.2348H21.8904H6.18297C5.58771 26.2348 5.10343 25.7506 5.10343 25.1553C5.10343 24.56 5.58771 24.0758 6.18297 24.0758ZM5.10343 3.9962C5.10343 3.40094 5.58771 2.91666 6.18297 2.91666H22.9699C23.5652 2.91666 24.0494 3.40094 24.0494 3.9962V20.8371C24.0494 21.4324 23.5652 21.9167 22.9699 21.9167H6.18297C5.80465 21.9167 5.44122 21.9819 5.10343 22.1016V3.9962ZM12.7682 9.85706H10.6091C10.6091 8.74955 11.0838 7.68949 11.9115 6.94855C12.75 6.19783 13.878 5.83899 15.0065 5.96432C16.8144 6.16496 18.2702 7.61695 18.468 9.41693C18.6485 11.0586 17.6857 12.2366 16.9459 12.9799C16.7554 13.1712 16.5797 13.3388 16.4246 13.4867C15.7192 14.1595 15.6293 14.2726 15.6293 14.7375V14.7917H13.4702V14.7374C13.4702 13.3207 14.1488 12.6735 14.9346 11.9242C15.0872 11.7786 15.2451 11.6281 15.4157 11.4567C16.1129 10.7562 16.3839 10.2168 16.322 9.65281C16.2335 8.84909 15.5803 8.20033 14.7684 8.11024C14.2424 8.05206 13.7389 8.21053 13.3516 8.55728C12.9754 8.89399 12.7682 9.35561 12.7682 9.85706ZM13.4699 16.411H15.629V18.5701H13.4699V16.411Z" fill="white"/>
</g>
<defs>
<clipPath id="clip0_417_1432">
<rect width="27.6364" height="27.6364" fill="white" transform="translate(0.757812 0.757568)"/>
</clipPath>
</defs>
</svg>
