<svg width="28" height="29" viewBox="0 0 28 29" fill="none" xmlns="http://www.w3.org/2000/svg">
<g clip-path="url(#clip0_417_1422)">
<path d="M26.527 25.1697H26.0664V17.3394C26.0664 16.5762 25.4477 15.9576 24.6846 15.9576H18.6967V13.1939C18.6967 12.4308 18.078 11.8121 17.3149 11.8121H15.9331V10.3571C16.369 10.5011 16.8477 10.4243 17.2168 10.1512C17.6606 9.83102 17.8748 9.27986 17.7635 8.74403L17.4121 7.01584L18.7289 5.81826C19.1396 5.45246 19.2943 4.87793 19.1228 4.35538C18.9542 3.82426 18.4872 3.44331 17.933 3.38488L16.1472 3.18037L15.3974 1.57424C15.1608 1.07639 14.6589 0.759155 14.1077 0.759155C13.5565 0.759155 13.0545 1.07639 12.818 1.57424L12.0677 3.18037L10.2814 3.38626C9.7274 3.44475 9.26056 3.82571 9.09214 4.35676C8.92026 4.87904 9.07437 5.45352 9.48458 5.81964L10.8019 7.01722L10.4519 8.74403C10.3406 9.27986 10.5548 9.83102 10.9986 10.1512C11.3552 10.4223 11.8218 10.5021 12.2482 10.3649V11.8121H10.8664C10.1032 11.8121 9.48458 12.4308 9.48458 13.1939V15.0364H3.4967C2.73355 15.0364 2.11488 15.655 2.11488 16.4182V25.1697H1.65428C0.891122 25.1697 0.272461 25.7884 0.272461 26.5515V27.0121C0.272461 27.7753 0.891122 28.394 1.65428 28.394H26.527C27.2902 28.394 27.9088 27.7753 27.9088 27.0121V26.5515C27.9088 25.7884 27.2902 25.1697 26.527 25.1697ZM24.6846 16.8788C24.939 16.8788 25.1452 17.085 25.1452 17.3394V25.1697H18.6967V16.8788H24.6846ZM11.543 9.40823C11.3905 9.29942 11.3164 9.11089 11.3542 8.92735L11.7153 7.15264C11.7732 6.86286 11.675 6.56393 11.4564 6.365L10.105 5.13749C9.96235 5.01463 9.9078 4.81789 9.96684 4.63911C10.0254 4.45255 10.1903 4.31943 10.3851 4.30149L12.2114 4.09099C12.503 4.05667 12.7564 3.87462 12.882 3.6092L13.6498 1.96391C13.7348 1.78989 13.9115 1.67952 14.1051 1.67952C14.2988 1.67952 14.4755 1.78989 14.5605 1.96391L15.3283 3.6092C15.4539 3.87462 15.7073 4.05667 15.9989 4.09099L17.8252 4.30149C18.0199 4.31955 18.1848 4.45262 18.2435 4.63911C18.3025 4.81789 18.2479 5.01463 18.1053 5.13749L16.7539 6.365C16.5354 6.56379 16.4372 6.86254 16.495 7.15218L16.8561 8.92735C16.8939 9.11089 16.8198 9.29942 16.6673 9.40823C16.5073 9.52767 16.2919 9.54123 16.1182 9.44277L14.5149 8.55611C14.2587 8.41332 13.947 8.41332 13.6908 8.55611L12.0875 9.44231C11.9148 9.53795 11.7024 9.52465 11.543 9.40823ZM13.1694 9.89969L14.1077 9.38105L15.0119 9.88127V11.8121H13.1694V9.89969ZM10.4058 13.1939C10.4058 12.9396 10.612 12.7333 10.8664 12.7333H17.3149C17.5693 12.7333 17.7755 12.9396 17.7755 13.1939V25.1697H10.4058V13.1939ZM3.0361 16.4182C3.0361 16.1638 3.24232 15.9576 3.4967 15.9576H9.48458V25.1697H3.0361V16.4182ZM26.9876 27.0121C26.9876 27.2665 26.7814 27.4727 26.527 27.4727H1.65428C1.39989 27.4727 1.19367 27.2665 1.19367 27.0121V26.5515C1.19367 26.2971 1.39989 26.0909 1.65428 26.0909H26.527C26.7814 26.0909 26.9876 26.2971 26.9876 26.5515V27.0121Z" fill="white"/>
<path d="M20.5387 20.103C20.7931 20.103 20.9993 19.8968 20.9993 19.6424C20.9993 19.1337 21.4118 18.7212 21.9206 18.7212C22.4293 18.7212 22.8418 19.1337 22.8418 19.6424C22.8418 20.1512 22.4293 20.5636 21.9206 20.5636C21.6662 20.5636 21.4599 20.7699 21.4599 21.0242C21.4599 21.2786 21.6662 21.4849 21.9206 21.4849C22.4293 21.4849 22.8418 21.8973 22.8418 22.4061C22.8418 22.9148 22.4293 23.3273 21.9206 23.3273C21.4118 23.3273 20.9993 22.9148 20.9993 22.4061C20.9993 22.1517 20.7931 21.9455 20.5387 21.9455C20.2843 21.9455 20.0781 22.1517 20.0781 22.4061C20.0776 23.2546 20.6567 23.9938 21.4808 24.1964C22.3048 24.3989 23.1607 24.0124 23.5536 23.2603C23.9465 22.5082 23.7749 21.5849 23.1379 21.0242C23.7749 20.4636 23.9465 19.5403 23.5536 18.7882C23.1607 18.0361 22.3048 17.6496 21.4808 17.8521C20.6567 18.0547 20.0776 18.7939 20.0781 19.6424C20.0781 19.8968 20.2843 20.103 20.5387 20.103Z" fill="white"/>
<path d="M8.10281 22.8666H5.98403C7.35663 21.4641 8.10281 20.5175 8.10281 19.1818C8.10281 18.1642 7.27793 17.3394 6.26039 17.3394C5.24285 17.3394 4.41797 18.1642 4.41797 19.1818C4.41797 19.4362 4.62419 19.6424 4.87857 19.6424C5.13296 19.6424 5.33918 19.4362 5.33918 19.1818C5.33918 18.673 5.75162 18.2606 6.26039 18.2606C6.76916 18.2606 7.1816 18.673 7.1816 19.1818C7.1816 20.3729 6.35758 21.1969 4.55293 23.0016C4.42124 23.1333 4.38185 23.3314 4.45312 23.5035C4.5244 23.6756 4.69231 23.7878 4.87857 23.7878H8.10281C8.3572 23.7878 8.56342 23.5816 8.56342 23.3272C8.56342 23.0728 8.3572 22.8666 8.10281 22.8666Z" fill="white"/>
<path d="M12.2487 21.0242H15.9335C16.1879 21.0242 16.3941 20.818 16.3941 20.5636C16.3941 20.3092 16.1879 20.103 15.9335 20.103H14.5517V14.5758C14.5517 14.3895 14.4395 14.2216 14.2674 14.1503C14.0953 14.079 13.8972 14.1184 13.7655 14.2501L12.3836 15.6319C12.2091 15.8127 12.2116 16.0999 12.3893 16.2776C12.5669 16.4553 12.8542 16.4578 13.0349 16.2832L13.6305 15.6877V20.103H12.2487C11.9943 20.103 11.7881 20.3092 11.7881 20.5636C11.7881 20.818 11.9943 21.0242 12.2487 21.0242Z" fill="white"/>
</g>
<defs>
<clipPath id="clip0_417_1422">
<rect width="27.6364" height="27.6364" fill="white" transform="translate(0.272461 0.757568)"/>
</clipPath>
</defs>
</svg>
