<svg width="29" height="29" viewBox="0 0 29 29" fill="none" xmlns="http://www.w3.org/2000/svg">
<path d="M24.6015 8.10388H21.1145C19.2577 8.10388 17.7949 9.62064 17.7949 11.4235V14.2951C17.7949 14.6351 18.0216 14.8564 18.3563 14.8564H27.3597C27.6997 14.8564 27.9211 14.6297 27.9211 14.2951V11.4235C27.9211 9.56667 26.4043 8.10388 24.6015 8.10388ZM26.7929 13.7337H18.9123V11.4289C18.9123 10.1928 19.927 9.23201 21.1091 9.23201H24.5961C25.8321 9.23201 26.7929 10.2468 26.7929 11.4289V13.7337Z" fill="white"/>
<path d="M22.8586 6.98112C24.4348 6.98112 25.6708 5.74504 25.6708 4.16891C25.6708 2.59277 24.4348 1.35669 22.8586 1.35669C21.2825 1.35669 20.041 2.58737 20.041 4.16351C20.041 5.73964 21.2825 6.98112 22.8586 6.98112ZM22.8586 2.47942C23.814 2.47942 24.5481 3.21351 24.5481 4.16891C24.5481 5.1243 23.814 5.85839 22.8586 5.85839C21.9032 5.85839 21.1691 5.1243 21.1691 4.16891C21.1691 3.21351 21.8978 2.47942 22.8586 2.47942Z" fill="white"/>
<path d="M8.27919 21.0476H4.79226C2.93544 21.0476 1.47266 22.5644 1.47266 24.3672V27.2388C1.47266 27.5789 1.69936 27.8002 2.03402 27.8002H11.0374C11.3775 27.8002 11.5988 27.5735 11.5988 27.2388V24.3672C11.6042 22.5104 10.082 21.0476 8.27919 21.0476ZM10.4761 26.672H2.59538V24.3672C2.59538 23.1311 3.61016 22.1703 4.79226 22.1703H8.27919C9.51527 22.1703 10.4761 23.1851 10.4761 24.3672V26.672Z" fill="white"/>
<path d="M6.53585 19.9195C8.11199 19.9195 9.34807 18.6834 9.34807 17.1073C9.34807 15.5311 8.11199 14.295 6.53585 14.295C4.95971 14.295 3.72363 15.5311 3.72363 17.1073C3.72363 18.6834 4.95971 19.9195 6.53585 19.9195ZM6.53585 15.4178C7.49125 15.4178 8.22534 16.1519 8.22534 17.1073C8.22534 18.0627 7.49125 18.7967 6.53585 18.7967C5.58045 18.7967 4.84636 18.0627 4.84636 17.1073C4.84636 16.1519 5.58045 15.4178 6.53585 15.4178Z" fill="white"/>
<path d="M13.8551 9.05919L15.5986 5.57226C15.7119 5.29158 15.5986 4.95152 15.3179 4.83817L11.831 3.14868L11.3236 4.16345L13.5205 5.22141C13.5205 5.22141 8.92699 6.84612 7.89062 11.8768L9.01875 12.0441C9.73665 8.00664 13.8983 6.32254 13.8983 6.32254L12.8457 8.55181L13.8551 9.05919Z" fill="white"/>
<path d="M15.4153 22.7749L16.4948 20.4808L15.48 19.9734L13.7906 23.4604C13.6772 23.7411 13.7906 24.0811 14.0712 24.1945L17.5582 25.884L18.0656 24.8692L15.8579 23.8274C15.8579 23.8274 20.6133 22.1703 21.5579 17.1612L20.4298 16.9939C20.0249 21.0476 15.4153 22.7749 15.4153 22.7749Z" fill="white"/>
</svg>
